<?xml version="1.0" encoding="UTF-8"?>
<svg width="124px" height="24px" viewBox="0 0 124 24" version="1.1" xmlns="http://www.w3.org/2000/svg" xmlns:xlink="http://www.w3.org/1999/xlink">
    <!-- Generator: Sketch 61 (89581) - https://sketch.com -->
    <title>编组 11</title>
    <desc>Created with Sketch.</desc>
    <g id="iscan-代码库-扫描单页报告-0323" stroke="none" stroke-width="1" fill="none" fill-rule="evenodd">
        <g id="ipipe-代码库扫描结果单页报告1" transform="translate(-29.000000, -14.000000)">
            <g id="编组-11" transform="translate(29.000000, 14.000000)">
                <g id="logo-gitee-light" fill-rule="nonzero">
                    <path d="M11.5004121,0.582608696 C17.8518041,0.582608696 23,5.73162873 23,12.0830208 C23,18.4344128 17.8518041,23.5826087 11.5004121,23.5826087 C5.14902004,23.5834328 0,18.4344128 0,12.0830208 C0,5.73162873 5.14902004,0.582608696 11.5004121,0.582608696 Z" id="路径" fill="#C71D23"></path>
                    <path d="M17.3874452,6.33580701 L9.32059919,6.33580701 C8.17456022,6.33580701 7.07547223,6.78456049 6.2651787,7.58332373 C5.45488517,8.38208698 4.99977841,9.46541239 5.00000008,10.5949249 L5.00000008,18.5437952 C5.00000008,18.8569051 5.25833318,19.1123368 5.57686033,19.1123368 L14.0742614,19.1123368 C15.1056666,19.1123368 16.0948159,18.7084647 16.8240511,17.9895909 C17.5532863,17.270717 17.962855,16.2957449 17.9626334,15.2792131 L17.9626334,12.0146309 C17.9626334,11.7009556 17.7048737,11.4465439 17.3866091,11.4460893 L10.7610775,11.4460893 C10.442813,11.4465439 10.1850531,11.7009556 10.1850534,12.0146309 L10.1850534,13.4335129 C10.1850534,13.7284953 10.4132894,13.9715675 10.7050636,13.9987586 L10.7602415,14.0020545 L14.7940825,14.0020545 C15.0904515,14.0023259 15.3383913,14.2238924 15.3675986,14.5145659 L15.3701066,14.5689481 L15.3701066,14.8532189 C15.3701066,15.7938442 14.5964223,16.5563717 13.6420342,16.5563717 L8.16855091,16.5563717 C7.85028605,16.556372 7.59215202,16.3023291 7.59169076,15.9886541 L7.59169076,10.5949249 C7.59169076,9.6827865 8.31903619,8.93791464 9.23448818,8.89342009 L9.32059919,8.89094817 L17.3849371,8.89094817 C17.7032019,8.8909485 17.961336,8.63690559 17.9617972,8.32323058 L17.9617972,6.90434859 C17.9634693,6.59123873 17.7051363,6.33580701 17.3874452,6.33580701 Z M33.5445459,21.5826087 C35.2976992,21.5826087 36.6980482,21.2447796 37.7439207,20.5707695 C38.7906293,19.8967593 39.3139836,19.0241717 39.3139836,17.9521824 C39.3139836,16.2234865 38.0047618,15.3583145 35.3854823,15.3583145 L33.7719459,15.3583145 C33.2343791,15.3583145 32.8489696,15.3072281 32.6148814,15.2034075 C32.3807932,15.0995869 32.2637491,14.9265525 32.2637491,14.6843043 C32.2637491,14.4420562 32.3406638,14.2410067 32.4919851,14.079508 C32.5505072,14.0102942 32.6265858,13.987223 32.7202211,14.0102942 C33.0947622,14.1141148 33.4509106,14.1660252 33.7903385,14.1660252 C34.9942206,14.1660252 35.9732108,13.8809304 36.7273092,13.3099169 C37.4814075,12.7397274 37.8584567,11.8951548 37.8584567,10.777023 C37.8584567,10.3625645 37.782378,9.99424841 37.6302207,9.67125088 C37.6185163,9.64817963 37.6218604,9.62181247 37.638581,9.59297341 C37.6546855,9.56501915 37.6854328,9.54843178 37.7180038,9.5501268 L38.1209699,9.5501268 C38.4135801,9.5501268 38.6593727,9.45125002 38.8575116,9.25596834 C39.0564866,9.0598627 39.1559741,8.81761455 39.1559741,8.53004787 L39.1559741,8.28697576 C39.1559741,8.01012073 39.0564866,7.77116849 38.8575116,7.57011899 C38.6664999,7.37150781 38.3994096,7.26142615 38.1218059,7.26689682 L35.5434918,7.26689682 C35.4546031,7.26601905 35.3661593,7.2543966 35.2801426,7.23228994 C34.79686,7.09008789 34.2946778,7.0200963 33.7903385,7.02464867 C33.0295519,7.02464867 32.3348116,7.15483646 31.7027735,7.41356408 C31.0706153,7.67372087 30.5264265,8.10547988 30.1335467,8.6585877 C29.7188762,9.22877723 29.5115409,9.90608326 29.5115409,10.6896819 C29.5115409,11.2318563 29.6394534,11.7278882 29.8969504,12.1769536 C30.1544474,12.6260191 30.4754827,12.9893913 30.8617281,13.2662463 C30.8851369,13.277782 30.8968414,13.2950854 30.8968414,13.3181566 C30.8968414,13.3412279 30.8851369,13.3642992 30.8617281,13.3873704 C30.5340047,13.6180829 30.2706555,13.8974099 30.0725166,14.2253512 C29.8807564,14.5292702 29.7775034,14.8793159 29.7740541,15.2371904 C29.7740541,15.9746465 30.0725166,16.544836 30.6686054,16.9485829 C30.6920142,16.9601186 30.7037186,16.9798939 30.7037186,17.008733 C30.7035586,17.0385006 30.6908373,17.0668602 30.6686054,17.0870105 C30.200429,17.317723 29.8476247,17.5995218 29.6068483,17.934055 C29.3677439,18.2677642 29.2473557,18.6369042 29.2473557,19.0406511 C29.2473557,19.6166084 29.4471667,20.1002808 29.8442806,20.492492 C30.2413945,20.8847033 30.7530443,21.1640303 31.3783942,21.3312969 C32.0045801,21.4977395 32.7260733,21.5817847 33.5437099,21.5817847 L33.5445459,21.5826087 Z M33.7903385,12.2634708 C33.404093,12.2634708 33.0914181,12.1283392 32.8514777,11.858076 C32.6123733,11.5869888 32.4919851,11.1980734 32.4919851,10.6905058 C32.4919851,10.1952979 32.6123733,9.8121503 32.8514777,9.54106309 C33.0914181,9.26997588 33.404093,9.13484427 33.7903385,9.13484427 C34.175748,9.13484427 34.4884229,9.26750397 34.7283633,9.53282337 C34.9674677,9.7973188 35.0878559,10.1837623 35.0878559,10.6905058 C35.0878559,11.1980734 34.9674676,11.5869888 34.7283633,11.858076 C34.4884229,12.1283392 34.175748,12.2642948 33.7903385,12.2642948 L33.7903385,12.2634708 Z M34.0352951,19.6116646 C33.3689798,19.6116646 32.8397733,19.5226755 32.4485116,19.3438733 C32.0564139,19.1650711 31.8607831,18.8972798 31.8607831,18.5396754 C31.8607831,18.2512847 31.9953838,17.9810215 32.2645852,17.7272377 C32.2996984,17.6926308 32.3523683,17.6753274 32.4217587,17.6753274 L32.4744285,17.6753274 C32.7670387,17.7330055 33.2109703,17.7618446 33.8078951,17.7618446 L34.7718368,17.7618446 C35.2859948,17.7618446 35.663044,17.8137549 35.9029844,17.9175755 C36.1429247,18.0213962 36.2624769,18.21091 36.2624769,18.487765 C36.2624769,18.8107626 36.0551417,19.0785539 35.6396352,19.291963 C35.2249647,19.5053721 34.689906,19.6116646 34.0352951,19.6116646 Z M42.5226637,5.81587988 C43.0493621,5.81587988 43.4815893,5.66591674 43.8210171,5.36599046 C44.159609,5.06606419 44.3293229,4.68044468 44.3293229,4.20748401 C44.3293229,3.73534731 44.159609,3.34643193 43.8210171,3.04073784 C43.4815893,2.73586771 43.0493621,2.5826087 42.5226637,2.5826087 C41.9850969,2.5826087 41.5445096,2.73504375 41.1992295,3.04073784 C40.8539494,3.34560796 40.6808914,3.73534731 40.6808914,4.20748401 C40.6808914,4.68044468 40.8539494,5.06606419 41.1992295,5.36599046 C41.5436735,5.66591674 41.985097,5.81587988 42.5226637,5.81587988 Z M43.0660827,17.2946517 C43.3469886,17.2946517 43.589437,17.194127 43.7942642,16.9922535 C43.9924669,16.8052284 44.1034938,16.5458265 44.1010869,16.2753968 L44.1010869,8.2358894 C44.1034938,7.96545965 43.9924669,7.70605774 43.7942642,7.51903264 C43.6046463,7.32338469 43.3414303,7.21365291 43.0669188,7.21577926 L41.9616881,7.21577926 C41.6690779,7.21577926 41.4241213,7.31715921 41.2259824,7.51820868 C41.0321256,7.70781933 40.9244528,7.96672874 40.92752,8.2358894 L40.92752,16.2753968 C40.92752,16.5514278 41.0261714,16.7903801 41.2251464,16.9922535 C41.4241213,17.194127 41.6699139,17.2946517 41.9616881,17.2946517 L43.0669188,17.2946517 L43.0660827,17.2946517 Z M50.6948494,17.5368999 C51.1387809,17.5368999 51.5776963,17.4965252 52.0099234,17.4157758 C52.2908292,17.3696333 52.5065247,17.2204941 52.658682,16.9667103 C52.7640217,16.793676 52.8166916,16.6148737 52.8166916,16.4311277 C52.8166916,16.3495544 52.8108394,16.2638611 52.7991349,16.1715761 L52.7289085,15.8947211 C52.6691801,15.6508183 52.510923,15.4415617 52.2908292,15.3154679 C52.0533111,15.1703203 51.7809823,15.0898566 51.5016176,15.0822834 C50.6948494,15.0476766 50.2910473,14.5285734 50.2910473,13.5257979 L50.2910473,9.80967839 C50.2910473,9.72810504 50.3328487,9.68855432 50.4139436,9.68855432 L51.6596271,9.68855432 C51.9396969,9.68855432 52.1821454,9.5872056 52.3869725,9.38533214 C52.5851753,9.19830704 52.6962022,8.93890514 52.6937953,8.66847538 L52.6937953,8.2358894 C52.6962022,7.96545965 52.5851753,7.70605774 52.3869725,7.51903264 C52.1973546,7.32338469 51.9341387,7.21365291 51.6596271,7.21581049 L50.4139436,7.21581049 C50.3320127,7.21581049 50.2910473,7.1754358 50.2910473,7.09468641 L50.2910473,5.59093517 C50.2910473,5.30254452 50.1890517,5.06029637 49.9842245,4.8650147 C49.7920967,4.67407983 49.5297074,4.56796238 49.2568791,4.57079856 L48.6607903,4.57079856 C48.3681801,4.57079856 48.1115191,4.66561315 47.8891353,4.85595098 C47.6667515,5.04546485 47.5321508,5.28524106 47.4853332,5.57280775 L47.2930465,7.09468641 C47.2813421,7.1754358 47.2286722,7.2215783 47.1342009,7.23311393 L46.7312349,7.2677208 C46.4386246,7.29079206 46.1936681,7.40862023 45.9955291,7.62202931 C45.8006263,7.82503473 45.6935777,8.09485529 45.6970667,8.37431692 L45.6970667,8.66847538 C45.6970667,8.94450644 45.7990622,9.18428265 46.0038894,9.38533214 C46.2087166,9.5872056 46.4511651,9.68855432 46.7312349,9.68855432 L46.9594708,9.68855432 C47.0414017,9.68855432 47.0823671,9.72810504 47.0823671,9.8088544 L47.0823671,13.5604048 C47.0823671,14.8169641 47.3749774,15.7933724 47.9593618,16.4912778 C48.5437462,17.1883592 49.4558541,17.5377238 50.6948494,17.5377238 L50.6948494,17.5368999 Z M59.2700011,17.5368999 C60.2055178,17.5368999 61.1284941,17.3234908 62.040602,16.8974966 C62.298099,16.7821403 62.4611247,16.5802669 62.5313511,16.2927002 C62.5657491,16.2043133 62.5835946,16.1105099 62.584021,16.0158452 C62.584021,15.8428108 62.5313511,15.6697764 62.4260114,15.496742 L62.3741776,15.3929214 C62.2424605,15.1578255 62.0214534,14.9838659 61.7596962,14.909249 C61.6341494,14.8750864 61.5045303,14.8576281 61.3742867,14.8573387 C61.2221294,14.8573387 61.0758243,14.88041 60.9362074,14.9265525 C60.5418745,15.0644103 60.126486,15.1346407 59.7080804,15.1341938 C58.3286322,15.1341938 57.492603,14.5285734 57.1999928,13.3189806 C57.1879832,13.2861982 57.1950313,13.2495719 57.2183854,13.2233997 C57.2390868,13.1961939 57.2716656,13.1802923 57.3061685,13.1805531 L62.1283851,13.1805531 C62.4318637,13.1805531 62.7010651,13.0849722 62.9351532,12.8954583 C63.1692414,12.7051205 63.2913017,12.4661683 63.3030061,12.1777776 L63.3030061,11.8490123 C63.3030061,10.3971714 62.929301,9.22136146 62.1810549,8.3224066 C61.4328087,7.42345173 60.3451347,6.97356234 58.9188689,6.97356234 C58.3002072,6.97356234 57.7007743,7.09715833 57.121406,7.34599825 C56.5452837,7.59212644 56.0218467,7.94388153 55.5789321,8.38255666 C55.1283124,8.82667827 54.7663117,9.38533216 54.4920941,10.0601663 C54.2162045,10.7341764 54.0790957,11.4691606 54.0790957,12.2642948 C54.0790957,13.8891701 54.5673367,15.1745685 55.5438189,16.1196658 C56.519465,17.0647632 57.7618044,17.5368999 59.2700011,17.5368999 L59.2700011,17.5368999 Z M60.4621788,11.1403952 L57.2534987,11.1403952 C57.1715678,11.1403952 57.1306024,11.1115562 57.1306024,11.053878 C57.1306024,10.5817413 57.3588383,10.160691 57.8144743,9.79155096 C58.1413617,9.5155199 58.5334594,9.37709241 58.9890953,9.37709241 C59.5157937,9.37709241 59.9103995,9.52375965 60.1729127,9.81791812 C60.4362619,10.1120766 60.5792229,10.5067598 60.6026317,11.0019677 L60.6026317,11.0192712 C60.6026317,11.1000206 60.5558141,11.1403952 60.4621788,11.1403952 L60.4621788,11.1403952 Z M69.966995,17.5368999 C70.9025117,17.5368999 71.825488,17.3234908 72.7375959,16.8974966 C72.9950929,16.7821403 73.1581186,16.5802669 73.228345,16.2927002 C73.262743,16.2043133 73.2805885,16.1105099 73.2810149,16.0158452 C73.2810149,15.8428108 73.228345,15.6697764 73.1238414,15.496742 L73.0711715,15.3929214 C72.9394544,15.1578255 72.7184473,14.9838659 72.4566901,14.909249 C72.3311433,14.8750864 72.2015242,14.8576281 72.0712806,14.8573387 C71.9191233,14.8573387 71.7728182,14.88041 71.6332013,14.9265525 C71.2388684,15.0644103 70.8234799,15.1346407 70.4050743,15.1341938 C69.0256261,15.1341938 68.1895969,14.5285734 67.8969867,13.3189806 C67.8849771,13.2861982 67.8920252,13.2495719 67.9153793,13.2233997 C67.9360807,13.1961939 67.9686595,13.1802923 68.0031624,13.1805531 L72.8253789,13.1805531 C73.1296936,13.1805531 73.398059,13.0849722 73.6321472,12.8954583 C73.8662353,12.7051205 73.9882956,12.4661683 74,12.1777776 L74,11.8490123 C74,10.3971714 73.6262949,9.22136146 72.8780488,8.3224066 C72.1298026,7.42345173 71.0421286,6.97356234 69.6158628,6.97356234 C68.9972011,6.97356234 68.3977682,7.09715833 67.8183999,7.34599825 C67.2422776,7.59212644 66.7188406,7.94388153 66.275926,8.38255666 C65.8253063,8.82667827 65.4633056,9.38533216 65.189088,10.0601663 C64.9131984,10.7341764 64.7760896,11.4691606 64.7760896,12.2642948 C64.7760896,13.8891701 65.2643307,15.1745685 66.2408128,16.1196658 C67.2164589,17.0647632 68.4587983,17.5368999 69.966995,17.5368999 L69.966995,17.5368999 Z M71.1591727,11.1403952 L67.9513286,11.1403952 C67.8693977,11.1403952 67.8284323,11.1115562 67.8284323,11.053878 C67.8284323,10.5817413 68.0566683,10.160691 68.5123042,9.79155096 C68.8400276,9.5155199 69.2312893,9.37709241 69.6869252,9.37709241 C70.2136236,9.37709241 70.6082294,9.52375965 70.8707426,9.81791812 C71.1340918,10.1120766 71.2770528,10.5067598 71.3004616,11.0019677 L71.3004616,11.0192712 C71.3004616,11.1000206 71.253644,11.1403952 71.1600087,11.1403952 L71.1591727,11.1403952 Z" id="形状" fill="#FFFFFF"></path>
                </g>
                <path d="M94.8453039,20 C95.5672192,20 96.1786372,19.8821363 96.679558,19.6464088 C97.1804788,19.4106814 97.5856354,19.0865562 97.8950276,18.6740331 C98.1896869,18.2762431 98.4033149,17.7937385 98.5359116,17.2265193 C98.6685083,16.6593002 98.7348066,16.0441989 98.7348066,15.3812155 C98.7348066,14.8066298 98.7053407,14.2946593 98.6464088,13.8453039 C98.587477,13.3959484 98.4769797,12.9944751 98.3149171,12.640884 C98.1381215,12.3020258 97.8950276,12.0036832 97.5856354,11.7458564 C97.2762431,11.4880295 96.8710866,11.2633517 96.3701657,11.0718232 L96.3701657,11.0718232 L94.6464088,10.3867403 C94.3517495,10.2688766 94.1197053,10.1510129 93.9502762,10.0331492 C93.7808471,9.91528545 93.6519337,9.77532228 93.5635359,9.61325967 C93.4751381,9.45119705 93.4198895,9.26703499 93.3977901,9.06077348 C93.3756906,8.85451197 93.3646409,8.59668508 93.3646409,8.28729282 C93.3646409,8.02209945 93.3867403,7.7679558 93.4309392,7.52486188 C93.4751381,7.28176796 93.5561694,7.06445672 93.6740331,6.87292818 C93.7918969,6.6961326 93.946593,6.54880295 94.1381215,6.43093923 C94.3296501,6.31307551 94.5801105,6.25414365 94.8895028,6.25414365 C95.4640884,6.25414365 95.8729282,6.44198895 96.1160221,6.81767956 C96.359116,7.19337017 96.480663,7.63904236 96.480663,8.15469613 L96.480663,8.15469613 L96.480663,8.66298343 L98.7348066,8.66298343 L98.7348066,7.55801105 C98.7348066,6.64456722 98.3959484,5.83425414 97.718232,5.12707182 C97.3793738,4.78821363 96.9779006,4.51565378 96.5138122,4.30939227 C96.0497238,4.10313076 95.5377532,4 94.9779006,4 C94.3149171,4 93.7440147,4.11418048 93.2651934,4.34254144 C92.786372,4.57090239 92.3922652,4.87661142 92.0828729,5.25966851 C91.7587477,5.6427256 91.5156538,6.09944751 91.3535912,6.62983425 C91.1915285,7.16022099 91.1104972,7.72007366 91.1104972,8.30939227 C91.1104972,9.29650092 91.2762431,10.1178637 91.6077348,10.7734807 C91.9392265,11.4290976 92.5911602,11.9558011 93.5635359,12.3535912 L93.5635359,12.3535912 L95.1767956,13.0165746 C95.4567219,13.1344383 95.6813996,13.2449355 95.8508287,13.3480663 C96.0202578,13.4511971 96.1565378,13.5837937 96.2596685,13.7458564 C96.3480663,13.907919 96.4069982,14.121547 96.4364641,14.3867403 C96.46593,14.6519337 96.480663,14.9907919 96.480663,15.4033149 C96.480663,15.7569061 96.4696133,16.0773481 96.4475138,16.3646409 C96.4254144,16.6519337 96.3554328,16.8987109 96.2375691,17.1049724 C96.1197053,17.3112339 95.9539595,17.4696133 95.7403315,17.5801105 C95.5267035,17.6906077 95.228361,17.7458564 94.8453039,17.7458564 C94.2707182,17.7458564 93.8618785,17.5801105 93.6187845,17.2486188 C93.3756906,16.9171271 93.2541436,16.5451197 93.2541436,16.1325967 L93.2541436,16.1325967 L93.2541436,15.4254144 L91,15.4254144 L91,16.2651934 C91,16.7955801 91.0994475,17.2854512 91.2983425,17.7348066 C91.4972376,18.1841621 91.7661142,18.5782689 92.1049724,18.9171271 C92.4438306,19.2559853 92.8489871,19.5211786 93.320442,19.7127072 C93.7918969,19.9042357 94.3001842,20 94.8453039,20 Z M103.957643,20 C104.473297,20 104.937385,19.9116022 105.349908,19.7348066 C105.762431,19.558011 106.116022,19.3149171 106.410681,19.0055249 C107.014733,18.4014733 107.316759,17.6058932 107.316759,16.6187845 L107.316759,16.6187845 L105.062615,16.6187845 C105.033149,16.8692449 104.948435,17.1197053 104.808471,17.3701657 C104.668508,17.6206262 104.384899,17.7458564 103.957643,17.7458564 C103.618785,17.7458564 103.349908,17.6500921 103.151013,17.4585635 C102.952118,17.267035 102.85267,16.9944751 102.85267,16.640884 L102.85267,16.640884 L102.85267,12.0662983 C102.85267,11.6390424 102.952118,11.3186004 103.151013,11.1049724 C103.349908,10.8913444 103.618785,10.7845304 103.957643,10.7845304 C104.296501,10.7845304 104.565378,10.8913444 104.764273,11.1049724 C104.963168,11.3186004 105.062615,11.6537753 105.062615,12.1104972 L105.062615,12.1104972 L107.316759,12.1104972 C107.316759,11.0497238 107.022099,10.1878453 106.432781,9.52486188 C106.138122,9.21546961 105.780847,8.97237569 105.360958,8.79558011 C104.941068,8.61878453 104.473297,8.53038674 103.957643,8.53038674 C103.25046,8.53038674 102.650092,8.67771639 102.156538,8.97237569 C101.662983,9.26703499 101.28361,9.65745856 101.018416,10.1436464 C100.856354,10.4383057 100.745856,10.7771639 100.686924,11.160221 C100.627993,11.5432781 100.598527,11.9631676 100.598527,12.4198895 L100.598527,12.4198895 L100.598527,16.1104972 C100.598527,16.5672192 100.627993,16.9871087 100.686924,17.3701657 C100.745856,17.7532228 100.856354,18.092081 101.018416,18.3867403 C101.28361,18.8729282 101.662983,19.2633517 102.156538,19.558011 C102.650092,19.8526703 103.25046,20 103.957643,20 Z M110.882136,20 C111.427256,20 111.850829,19.8895028 112.152855,19.6685083 C112.45488,19.4475138 112.753223,19.1307551 113.047882,18.718232 L113.047882,18.718232 L113.092081,18.718232 L113.092081,19.8674033 L115.346225,19.8674033 L115.346225,12.0662983 C115.346225,11.4769797 115.257827,10.961326 115.081031,10.519337 C114.904236,10.0773481 114.668508,9.70902394 114.373849,9.41436464 C114.064457,9.11970534 113.703499,8.89871087 113.290976,8.75138122 C112.878453,8.60405157 112.436464,8.53038674 111.965009,8.53038674 C111.449355,8.53038674 110.985267,8.61510129 110.572744,8.78453039 C110.160221,8.95395948 109.80663,9.18600368 109.511971,9.48066298 C108.893186,10.0994475 108.554328,10.9097606 108.495396,11.9116022 L108.495396,11.9116022 L110.683241,11.9116022 C110.756906,11.5432781 110.915285,11.2633517 111.158379,11.0718232 C111.401473,10.8802947 111.67035,10.7845304 111.965009,10.7845304 C112.392265,10.7845304 112.686924,10.9097606 112.848987,11.160221 C113.01105,11.4106814 113.092081,11.7274401 113.092081,12.1104972 L113.092081,12.1104972 L113.092081,13.281768 C112.974217,13.267035 112.86372,13.2596685 112.760589,13.2596685 C112.657459,13.2596685 112.569061,13.252302 112.495396,13.2375691 C112.421731,13.2228361 112.3407,13.2154696 112.252302,13.2154696 L112.252302,13.2154696 L112.009208,13.2154696 C111.302026,13.2154696 110.720074,13.2928177 110.263352,13.4475138 C109.80663,13.6022099 109.445672,13.8342541 109.180479,14.1436464 C108.900552,14.4677716 108.709024,14.8692449 108.605893,15.3480663 C108.502762,15.8268877 108.451197,16.3830571 108.451197,17.0165746 C108.451197,17.6353591 108.528545,18.1399632 108.683241,18.5303867 C108.837937,18.9208103 109.040516,19.2191529 109.290976,19.4254144 C109.541436,19.6464088 109.802947,19.7974217 110.075506,19.878453 C110.348066,19.9594843 110.616943,20 110.882136,20 Z M111.876611,18.0110497 C111.508287,18.0110497 111.220994,17.878453 111.014733,17.6132597 C110.808471,17.3480663 110.705341,17.0018416 110.705341,16.5745856 C110.705341,15.9705341 110.878453,15.5543278 111.224678,15.3259669 C111.570902,15.0976059 111.987109,14.9834254 112.473297,14.9834254 C112.635359,14.9834254 112.841621,15.0055249 113.092081,15.0497238 L113.092081,15.0497238 L113.092081,16.5745856 C113.092081,17.0313076 112.985267,17.3848987 112.771639,17.6353591 C112.558011,17.8858195 112.259669,18.0110497 111.876611,18.0110497 Z M119.441989,19.8674033 L119.441989,12.3314917 C119.441989,11.8305709 119.52302,11.4475138 119.685083,11.1823204 C119.847145,10.9171271 120.141805,10.7845304 120.569061,10.7845304 C120.922652,10.7845304 121.195212,10.9023941 121.38674,11.1381215 C121.578269,11.373849 121.674033,11.6979742 121.674033,12.1104972 L121.674033,12.1104972 L121.674033,19.8674033 L123.928177,19.8674033 L123.928177,11.2707182 C123.928177,10.7697974 123.861878,10.3462247 123.729282,10 C123.596685,9.65377532 123.41989,9.37016575 123.198895,9.14917127 C122.977901,8.9281768 122.72744,8.76979742 122.447514,8.67403315 C122.167587,8.57826888 121.887661,8.53038674 121.607735,8.53038674 C121.092081,8.53038674 120.668508,8.64456722 120.337017,8.87292818 C120.005525,9.10128913 119.721915,9.39226519 119.486188,9.74585635 L119.486188,9.74585635 L119.441989,9.74585635 L119.441989,8.66298343 L117.187845,8.66298343 L117.187845,19.8674033 L119.441989,19.8674033 Z" id="Scan" fill="#FFFFFF" fill-rule="nonzero"></path>
                <rect id="矩形" fill="#FFFFFF" opacity="0.3" x="82" y="6" width="1" height="13"></rect>
            </g>
        </g>
    </g>
</svg>