<svg viewBox="0 0 188 48" version="1.1" xmlns="http://www.w3.org/2000/svg" xmlns:xlink="http://www.w3.org/1999/xlink">
    <g stroke="none" stroke-width="1" fill-rule="evenodd">
        <g>
            <path d="M40.6443636,24.9195636 L45.4349091,24.9195636 L45.4349091,20.7472 L40.6443636,20.7472 L40.6443636,24.9195636 Z M40.6443636,43.1530182 L45.4349091,43.1530182 L45.4349091,26.7413818 L40.6443636,26.7413818 L40.6443636,43.1530182 Z"
            ></path>
            <path d="M32.8549091,26.7570909 L22.6323636,26.728 L22.6323636,30.176 L31.5996364,30.176 C31.5996364,30.176 33.7305455,30.6872727 33.7305455,32.0363636 L33.7305455,33.2516364 L25.6149091,33.2516364 C25.6149091,33.2516364 22.4178182,33.5490909 21.3996364,37.304 C21.2309091,39.0829091 21.468,39.9592727 21.5785455,40.2705455 C21.7,40.6036364 22.6323636,42.696 25.4229091,43.2050909 L38.3436364,43.2050909 L38.3436364,31.448 C38.3436364,31.448 37.7138182,27.424 32.8549091,26.7570909 L32.8549091,26.7570909 Z M33.7305455,39.9592727 L27.2083636,39.9592727 C26.3138182,39.6094545 26.0258182,39.0261818 25.9698182,38.8770909 C25.9021818,38.7585455 25.7130909,38.2014545 25.9458182,37.7076364 C26.4672727,36.6821818 27.3370909,36.4385455 27.3370909,36.4385455 L33.7305455,36.4385455 L33.7305455,39.9592727 Z"
            ></path>
            <path d="M20.3328727,37.3874182 C20.4994182,33.4005091 16.8717818,32.0128727 16.8717818,32.0128727 C19.9328727,30.4266909 19.5510545,26.4317818 19.5510545,26.4317818 C19.2216,20.3306909 11.6616,20.5983273 11.6616,20.5983273 L-0.000218181818,20.5983273 L-0.000218181818,43.3910545 L13.1816,43.3910545 C20.9125091,43.3757818 20.3328727,37.3874182 20.3328727,37.3874182 M12.9066909,39.1663273 L12.9066909,39.1663273 L5.0136,39.1663273 L5.0136,34.2514182 L12.8732364,34.2514182 L13.1357818,34.3023273 C13.1357818,34.3023273 14.6332364,34.5706909 15.1648727,35.8906909 C15.1648727,35.8906909 15.4877818,37.1648727 14.8019636,38.0834182 C14.8019636,38.0834182 14.3081455,38.9445091 12.9066909,39.1663273 M14.5772364,28.5968727 C14.5772364,28.5968727 14.0441455,29.5510545 12.6252364,29.7757818 L5.0136,29.7757818 L5.0136,25.0448727 L12.6077818,25.0448727 C12.6077818,25.0448727 14.2652364,24.9714182 14.8019636,26.2834182 C14.8019636,26.2834182 15.1292364,27.6485091 14.5772364,28.5968727"
            ></path>
            <g transform="translate(46.545455, 0.616291)">
                <path d="M6.75330909,23.0591273 C11.5380364,22.0285818 10.8878545,16.3864 10.7344,15.1413091 C10.5045818,13.2278545 8.24130909,9.90785455 5.16494545,10.1820364 C1.29294545,10.5005818 0.720581818,16.0387636 0.720581818,16.0387636 C0.208581818,18.6031273 1.98821818,24.0678545 6.75330909,23.0591273 M15.6238545,13.5616727 C18.2616727,13.5616727 20.4034909,10.5529455 20.4034909,6.83730909 C20.4034909,3.11076364 18.2616727,0.110763636 15.6238545,0.110763636 C12.9925818,0.110763636 10.8471273,3.11076364 10.8471273,6.83730909 C10.8471273,10.5529455 12.9925818,13.5616727 15.6238545,13.5616727 M26.9947636,14.0002182 C30.5227636,14.4656727 32.8064,10.7318545 33.2449455,7.9064 C33.6965818,5.0824 31.4325818,1.81258182 28.9285818,1.25767273 C26.4253091,0.672945455 23.3067636,4.64530909 23.0071273,7.23003636 C22.6740364,10.3893091 23.4754909,13.5616727 26.9947636,14.0002182 M40.9802182,18.7464 C40.9802182,17.4002182 39.8544,13.3311273 35.6289455,13.3311273 C31.4325818,13.3311273 30.8624,17.1667636 30.8624,19.8860364 C30.8624,22.4882182 31.0754909,26.0984 36.3242182,25.9951273 C41.5511273,25.8838545 40.9802182,20.1071273 40.9802182,18.7464 M35.6289455,30.6118545 C35.6289455,30.6118545 30.1845818,26.4387636 26.9947636,21.9158545 C22.6740364,15.2453091 16.5322182,17.9602182 14.4856727,21.3536727 C12.4456727,24.7325818 9.25658182,26.8969455 8.7904,27.4605818 C8.33294545,28.0162182 2.20130909,31.2925818 3.56712727,37.2816727 C4.92494545,43.2700364 9.7104,43.1456727 9.7104,43.1456727 C9.7104,43.1456727 13.2478545,43.4954909 17.3184,42.6133091 C21.4282182,41.7085818 24.9460364,42.8111273 24.9460364,42.8111273 C24.9460364,42.8111273 34.5002182,45.9849455 37.1242182,39.8838545 C39.7365818,33.7914909 35.6289455,30.6118545 35.6289455,30.6118545"
                ></path>
            </g>
            <path d="M63.0249455,25.4179636 L63.0249455,29.4332364 L59.7129455,29.4332364 C59.7129455,29.4332364 56.3994909,29.6863273 55.2431273,33.4143273 C54.8314909,35.8906909 55.6009455,37.3474182 55.7289455,37.6761455 C55.8831273,37.9794182 56.9333091,39.7874182 59.6213091,40.3074182 L65.8285818,40.3074182 L65.8285818,25.4521455 L63.0249455,25.4179636 Z M62.9718545,37.8826909 L60.4685818,37.8826909 C60.4685818,37.8826909 58.7289455,37.8005091 58.1994909,35.8005091 C57.9304,34.9176 58.2373091,33.9096 58.3660364,33.5037818 C58.5122182,33.0965091 59.0845818,32.1888727 60.2991273,31.8223273 L62.9718545,31.8223273 L62.9718545,37.8826909 Z"
                  class="reverse-path"></path>
            <path d="M67.3498909,29.7812364 L67.3498909,37.6096 C67.3498909,37.6096 67.4844364,39.5725091 70.2560727,40.2699636 L77.4080727,40.2699636 L77.4080727,29.7812364 L74.3273455,29.7812364 L74.3273455,37.6757818 L71.3797091,37.6757818 C71.3797091,37.6757818 70.4248,37.5266909 70.2560727,36.7848727 L70.2560727,29.7383273 L67.3498909,29.7812364 Z"
                  class="reverse-path"></path>
        </g>
        <g transform="translate(89.454545, 21.818182)">
            <path d="M11.721334,17.6224516 L3.87573936,17.6224516 L3.87573936,12.2589057 L12.8089388,12.2589057 C13.5001634,12.2589057 14.0664209,12.4602608 14.5623843,12.8886338 C15.167694,13.3643844 15.4605858,13.9960866 15.4605858,14.8192734 C15.4605858,16.0214815 15.072016,17.6224516 11.721334,17.6224516 L11.721334,17.6224516 Z M3.87573936,8.46474475 L3.87573936,3.95597076 L12.2055817,3.95597076 C14.4471802,3.95597076 14.7361668,4.99630521 14.7361668,5.90437703 C14.7361668,7.00393356 14.3612653,8.46474475 11.1179769,8.46474475 L3.87573936,8.46474475 Z M18.6101488,5.90437703 C18.6101488,3.9658411 17.9404029,2.43988563 16.5950533,1.35019945 C15.3844339,0.479634942 13.9082593,0.0394175165 12.2055817,0.0394175165 L-0.00019526119,0.0394175165 L-0.00019526119,21.5390049 L11.721334,21.5390049 C13.5782679,21.5390049 15.2086988,21.1047097 16.5911481,20.230197 C18.3328779,18.9983779 19.2154585,17.176312 19.2154585,14.8192734 C19.2154585,12.8294117 18.5242338,11.2165972 17.1574055,10.0143891 C18.1219958,8.92075473 18.6101488,7.54088038 18.6101488,5.90437703 L18.6101488,5.90437703 Z"
                  ></path>
            <path d="M31.501432,18.0065945 L28.386612,18.0065945 C27.0753212,18.0065945 26.1150528,17.8263593 25.5643107,17.4896562 C24.7916578,16.9390476 24.3982706,15.8774425 24.3982706,14.3365306 L24.3982706,6.36855037 L20.5208845,6.36855037 L20.5208845,14.3365306 C20.5208845,19.3791549 23.1676746,21.9361179 28.386612,21.9361179 L35.3808354,21.9361179 L35.3808354,6.36855037 L31.501432,6.36855037 L31.501432,18.0065945 Z"
                  ></path>
            <path d="M40.588426,13.4981251 C40.588426,12.5786208 40.8577552,11.8621493 41.4432537,11.2686688 C42.0677854,10.5092481 43.1587642,10.1227049 44.6888668,10.1227049 L47.8212836,10.1227049 L47.8212836,16.8735454 L44.6888668,16.8735454 C43.1568125,16.8735454 42.0658337,16.4870021 41.4315437,15.7100113 C40.8636102,15.0716293 40.588426,14.3493011 40.588426,13.4981251 M38.3986617,8.8342275 L38.3908551,8.8439887 C37.3584261,10.1363705 36.8353808,11.7020658 36.8353808,13.4981251 C36.8353808,15.2922322 37.3584261,16.8579274 38.3986617,18.1600705 C39.7784864,19.7979985 41.8121177,20.6257476 44.4468608,20.6257476 L47.790057,20.6257476 C47.6358757,21.7853772 46.8864377,22.3085771 45.4129332,22.3085771 L38.5255197,22.3085771 L38.5255197,26.1818182 L45.4129332,26.1818182 C50.6043529,26.1818182 51.6953317,23.3569292 51.6953317,20.9849595 L51.6953317,6.36855037 L44.4468608,6.36855037 C41.8140694,6.36855037 39.7804381,7.19629946 38.3986617,8.8342275"
                  ></path>
            <path d="M64.1488505,14.2161314 C64.1488505,15.533655 63.7713013,16.5178997 62.992969,17.2292844 C62.3598479,17.7944943 61.6434725,18.0693032 60.8012472,18.0693032 L56.8534375,18.0693032 L56.8534375,10.3629596 L60.8012472,10.3629596 C61.6454086,10.3629596 62.3617841,10.6377685 62.9890967,11.1990804 C63.7693651,11.9143631 64.1488505,12.9025058 64.1488505,14.2161314 M60.8012472,6.61698282 L56.8534375,6.61698282 L56.8534375,0.707616708 L53.1302211,0.707616708 L53.1302211,21.9361179 L60.8012472,21.9361179 C62.6773765,21.9361179 64.3192317,21.2832031 65.6842174,19.9949146 C67.2137759,18.539012 67.990172,16.5958596 67.990172,14.2161314 C67.990172,11.8383522 67.2137759,9.89325078 65.6706644,8.42175625 C64.3095509,7.22312163 62.6696319,6.61698282 60.8012472,6.61698282"
                  ></path>
            <path d="M78.6806245,16.6444863 L75.500595,16.6444863 C74.1037596,16.6444863 73.4796417,16.4274209 73.2478265,16.2801266 C72.7941026,15.9002622 72.5622874,15.0959575 72.5622874,13.8924077 L72.5622874,6.45404305 L68.7541773,6.45404305 L68.7541773,13.8924077 C68.7541773,18.2104578 71.086199,20.489644 75.500595,20.489644 L78.4151267,20.489644 C78.3576682,21.1117688 78.1833115,21.5439615 77.9079071,21.7707172 C77.4244633,22.1060057 76.6557085,22.2784951 75.621456,22.2784951 L69.1207228,22.2784951 L69.1207228,26.125591 L75.621456,26.125591 C78.0426373,26.125591 79.8139434,25.5480421 80.8620653,24.4375202 C82.0231228,23.3870789 82.6135582,21.6137325 82.6135582,19.1678711 L82.6135582,6.45404305 L78.6806245,6.45404305 L78.6806245,16.6444863 Z"
                  ></path>
            <path d="M94.2481677,12.0191689 L87.6131366,12.0191689 C88.1522821,10.3821606 89.342731,9.58540412 91.2317078,9.58540412 C92.7527277,9.58540412 93.7444405,10.3821606 94.2481677,12.0191689 L94.2481677,12.0191689 Z M98.4176904,13.9823927 C98.4176904,12.1002285 97.9415108,10.4058853 97.0147316,8.97053746 C95.790832,6.77599731 93.8447924,5.66093366 91.2317078,5.66093366 C88.6422355,5.66093366 86.6253592,6.63364876 85.2440449,8.54546887 C84.1244326,10.0144268 83.5577396,11.8451874 83.5577396,13.9823927 C83.5577396,19.2591744 86.3046267,21.9361179 91.7196935,21.9361179 L98.0536688,21.9361179 L98.0536688,18.0116475 L91.7196935,18.0116475 C90.2675426,18.0116475 89.2010578,17.8277806 88.5832049,17.4857487 C88.0932516,17.1555791 87.7587453,16.6494509 87.5698476,15.9436394 L98.4176904,15.9436394 L98.4176904,13.9823927 Z"
                  ></path>
        </g>
    </g>
</svg>